<svg width="18" height="15" viewBox="0 0 18 15" fill="none" xmlns="http://www.w3.org/2000/svg">
<path fill-rule="evenodd" clip-rule="evenodd" d="M15.85 12.16C16.44 11.26 16.66 10.8 17.11 9.79001C13.79 8.53001 13.26 3.79999 16.54 1.98999C15.54 0.72999 14.13 0 12.8 0C11.84 0 11.18 0.250011 10.59 0.480011C10.09 0.670011 9.64001 0.839996 9.08001 0.839996C8.48001 0.839996 7.95 0.650012 7.39 0.450012C6.78 0.230012 6.14 0 5.34 0C3.85 0 2.26001 0.910001 1.25001 2.47C-0.169995 4.67 0.080008 8.79 2.37001 12.31C3.19001 13.57 4.29001 14.98 5.72001 15C6.32001 15.01 6.71 14.83 7.14 14.64C7.63 14.42 8.16 14.18 9.09 14.18C10.02 14.17 10.54 14.42 11.03 14.64C11.45 14.83 11.83 15.01 12.42 15C13.87 14.98 15.03 13.42 15.85 12.16Z" fill="white"/>
</svg>
